<svg width="80" height="80" viewBox="0 0 80 80" fill="none" xmlns="http://www.w3.org/2000/svg">
<circle cx="40" cy="40" r="40" fill="#F47923"/>
<path d="M36.25 56.25H43.75V58.75H36.25V56.25ZM35 52.5H45V55H35V52.5ZM48.861 24.8977C46.5118 22.5453 43.3649 21.25 40 21.25C38.3574 21.2461 36.7302 21.5668 35.2119 22.1936C33.6935 22.8204 32.314 23.741 31.1525 24.9025C29.991 26.064 29.0704 27.4435 28.4436 28.9619C27.8168 30.4802 27.4961 32.1074 27.5 33.75C27.5 37.3922 28.8961 40.7993 31.3282 43.0969L31.6688 43.4164C33.0758 44.7321 35 46.5344 35 48.125V51.25H38.75V41.0243L35.2907 39.0625L36.7188 37.0094L40 38.75L43.2258 37.0008L44.718 39.0071L41.25 41.0383V51.25H45V48.125C45 46.5719 46.9032 44.7711 48.293 43.4555L48.6766 43.0914C51.1782 40.7032 52.5 37.4696 52.5 33.75C52.5083 32.1073 52.191 30.4791 51.5664 28.9597C50.9418 27.4403 50.0222 26.0597 48.861 24.8977Z" fill="white"/>
</svg>
