<svg width="80" height="80" viewBox="0 0 80 80" fill="none" xmlns="http://www.w3.org/2000/svg">
<circle cx="40" cy="40" r="40" fill="#9D3CFF"/>
<path d="M52.3746 27.6258C50.7525 25.9876 48.8227 24.6861 46.6961 23.796C44.5694 22.9059 42.2879 22.4448 39.9825 22.4391C37.6772 22.4335 35.3934 22.8834 33.2624 23.763C31.1314 24.6426 29.1952 25.9346 27.5651 27.5647C25.9349 29.1949 24.6429 31.131 23.7633 33.262C22.8837 35.393 22.4338 37.6768 22.4395 39.9822C22.4452 42.2875 22.9063 44.5691 23.7964 46.6957C24.6865 48.8223 25.988 50.7521 27.6261 52.3742C29.2483 54.0124 31.1781 55.3139 33.3047 56.204C35.4313 57.0941 37.7128 57.5552 40.0182 57.5609C42.3236 57.5665 44.6074 57.1166 46.7383 56.237C48.8693 55.3574 50.8055 54.0654 52.4356 52.4353C54.0658 50.8051 55.3578 48.8689 56.2374 46.738C57.117 44.607 57.5669 42.3232 57.5612 40.0178C57.5555 37.7125 57.0944 35.4309 56.2043 33.3043C55.3143 31.1777 54.0127 29.2479 52.3746 27.6258ZM45.6254 36.25C45.9962 36.25 46.3587 36.36 46.6671 36.566C46.9754 36.772 47.2157 37.0649 47.3576 37.4075C47.4996 37.7501 47.5367 38.1271 47.4643 38.4908C47.392 38.8545 47.2134 39.1886 46.9512 39.4508C46.689 39.713 46.3549 39.8916 45.9912 39.964C45.6274 40.0363 45.2504 39.9992 44.9078 39.8573C44.5652 39.7154 44.2724 39.475 44.0664 39.1667C43.8603 38.8584 43.7504 38.4958 43.7504 38.125C43.7497 37.8786 43.7978 37.6345 43.8918 37.4067C43.9858 37.179 44.1239 36.972 44.2982 36.7978C44.4724 36.6236 44.6793 36.4855 44.9071 36.3915C45.1349 36.2975 45.379 36.2494 45.6254 36.25ZM34.3754 36.25C34.7462 36.25 35.1087 36.36 35.4171 36.566C35.7254 36.772 35.9657 37.0649 36.1076 37.4075C36.2496 37.7501 36.2867 38.1271 36.2143 38.4908C36.142 38.8545 35.9634 39.1886 35.7012 39.4508C35.439 39.713 35.1049 39.8916 34.7412 39.964C34.3774 40.0363 34.0004 39.9992 33.6578 39.8573C33.3152 39.7154 33.0224 39.475 32.8164 39.1667C32.6103 38.8584 32.5004 38.4958 32.5004 38.125C32.4997 37.8786 32.5478 37.6345 32.6418 37.4067C32.7358 37.179 32.8739 36.972 33.0482 36.7978C33.2224 36.6236 33.4293 36.4855 33.6571 36.3915C33.8849 36.2975 34.129 36.2494 34.3754 36.25ZM40.0043 50C36.4558 50 33.4613 47.6961 32.5261 44.5445C32.4449 44.2695 32.3441 43.75 32.3441 43.75H47.6566C47.6566 43.75 47.5543 44.2727 47.4746 44.5445C46.5543 47.6977 43.5527 50 40.0043 50Z" fill="white"/>
</svg>
