<svg width="80" height="80" viewBox="0 0 80 80" fill="none" xmlns="http://www.w3.org/2000/svg">
<circle cx="40" cy="40" r="40" fill="#9D3CFF"/>
<path d="M46.2499 40C44.6437 40 43.0905 39.2828 41.8749 37.9813C40.6929 36.7117 39.971 35.0188 39.8437 33.2156C39.7077 31.2922 40.2944 29.5234 41.4952 28.2344C42.696 26.9453 44.3749 26.25 46.2499 26.25C48.1116 26.25 49.7952 26.9578 50.9921 28.2437C52.2007 29.5422 52.789 31.3078 52.653 33.2148C52.5226 35.0203 51.8015 36.7125 50.6218 37.9805C49.4093 39.2828 47.8569 40 46.2499 40ZM56.5491 53.75H35.9515C35.6203 53.7518 35.2932 53.6775 34.9952 53.533C34.6972 53.3885 34.4364 53.1776 34.2327 52.9164C34.0167 52.6333 33.8675 52.305 33.7964 51.9561C33.7252 51.6072 33.7339 51.2467 33.8218 50.9016C34.4796 48.2602 36.1093 46.0695 38.5343 44.5672C40.6866 43.2344 43.4265 42.5 46.2499 42.5C49.1288 42.5 51.7968 43.2031 53.9616 44.5352C56.3921 46.0297 58.0241 48.2328 58.6788 50.9062C58.7656 51.2516 58.7734 51.6121 58.7014 51.9608C58.6294 52.3096 58.4796 52.6376 58.2632 52.9203C58.0598 53.1803 57.7995 53.3902 57.5024 53.534C57.2053 53.6778 56.8792 53.7517 56.5491 53.75ZM31.4843 40.3125C28.7351 40.3125 26.3179 37.7563 26.0937 34.6148C25.9827 33.0055 26.4843 31.5172 27.4999 30.4258C28.5046 29.3453 29.9218 28.75 31.4843 28.75C33.0468 28.75 34.453 29.3484 35.4632 30.4352C36.4866 31.5352 36.9866 33.0203 36.8694 34.6164C36.6452 37.757 34.2288 40.3125 31.4843 40.3125ZM36.614 42.7695C35.2398 42.0977 33.4562 41.7617 31.4851 41.7617C29.1835 41.7617 26.9483 42.3617 25.1905 43.4508C23.1976 44.6875 21.8569 46.4883 21.3155 48.6625C21.2363 48.9752 21.2288 49.3018 21.2936 49.6179C21.3584 49.9339 21.4938 50.2312 21.6898 50.4875C21.8757 50.7261 22.1138 50.919 22.3859 51.0512C22.658 51.1834 22.9568 51.2514 23.2593 51.25H31.9312C32.0775 51.25 32.2192 51.1986 32.3316 51.1048C32.444 51.011 32.5198 50.8807 32.546 50.7367C32.5546 50.6875 32.5655 50.6383 32.578 50.5898C33.2405 47.9289 34.7929 45.6805 37.0866 44.0414C37.171 43.9806 37.2389 43.8997 37.284 43.806C37.3292 43.7124 37.3504 43.6089 37.3455 43.505C37.3406 43.4011 37.3099 43.3001 37.2561 43.2111C37.2023 43.1221 37.1271 43.0479 37.0374 42.9953C36.9148 42.9234 36.7741 42.8477 36.614 42.7695Z" fill="white"/>
</svg>
